<svg xmlns="http://www.w3.org/2000/svg" width="35.987" height="48.884" viewBox="0 0 35.987 48.884">
  <g id="iconfinder_microphone_299033" transform="translate(0.5 0.5)">
    <path id="Path_67" data-name="Path 67" d="M36.8,1038.4a2.2,2.2,0,0,1,2.187,2.347v2.347c0,9.388-6.683,17.368-15.307,18.542v4.929H36.8a2.2,2.2,0,0,1,2.187,2.347,2.353,2.353,0,0,1-2.187,2.347H6.187A2.353,2.353,0,0,1,4,1068.912a2.2,2.2,0,0,1,2.187-2.347h13.12v-4.929C10.682,1060.462,4,1052.483,4,1043.094v-2.347a2.192,2.192,0,1,1,4.373,0v2.347c0,7.745,5.874,14.083,13.12,14.083s13.12-6.337,13.12-14.083v-2.347A2.2,2.2,0,0,1,36.8,1038.4Z" transform="translate(-4 -1023.375)" fill="#95a5a6" stroke="#707070" stroke-width="1"/>
    <path id="Path_68" data-name="Path 68" d="M17.388,1028.4a9.4,9.4,0,0,1,9.388,9.388v18.777a9.388,9.388,0,0,1-18.777,0v-18.777A9.4,9.4,0,0,1,17.388,1028.4Z" transform="translate(0.105 -1028.4)" fill="#bdc3c7" stroke="#707070" stroke-width="1"/>
    <path id="Path_69" data-name="Path 69" d="M17.388,1028.4v37.553A9.4,9.4,0,0,1,8,1056.565v-18.777A9.4,9.4,0,0,1,17.388,1028.4Z" transform="translate(0.533 -1028.4)" fill="#95a5a6" stroke="#707070" stroke-width="1"/>
    <path id="Path_70" data-name="Path 70" d="M18.694,1033.4v2.347H14V1033.4Zm0,4.694v2.347H14v-2.347Zm0,4.694v2.347H14v-2.347Z" transform="translate(7.638 -1023.887)" fill="#95a5a6" stroke="#707070" stroke-width="1"/>
    <path id="Path_71" data-name="Path 71" d="M12.694,1033.4v2.347H8V1033.4Zm0,4.694v2.347H8v-2.347Zm0,4.694v2.347H8v-2.347Z" transform="translate(0.655 -1023.887)" fill="#7f8c8d" stroke="#707070" stroke-width="1"/>
  </g>
</svg>
