<svg xmlns="http://www.w3.org/2000/svg" width="70.595" height="57.489" viewBox="0 0 70.595 57.489">
  <g id="NASA_logo" transform="translate(1.093 0.5)">
    <ellipse id="Ellipse_1" data-name="Ellipse 1" cx="28.244" cy="28.244" rx="28.244" ry="28.244" transform="translate(3.843 56.489) rotate(-90)" fill="#0b3d91" stroke="#707070" stroke-width="1"/>
    <g id="Group_30" data-name="Group 30" transform="translate(0 2.085)">
      <ellipse id="Ellipse_2" data-name="Ellipse 2" cx="0.317" cy="0.317" rx="0.317" ry="0.317" transform="translate(30.103 3.024)" fill="#fff" stroke="#707070" stroke-width="1"/>
      <ellipse id="Ellipse_3" data-name="Ellipse 3" cx="0.317" cy="0.317" rx="0.317" ry="0.317" transform="translate(33.353 3.446)" fill="#fff" stroke="#707070" stroke-width="1"/>
      <ellipse id="Ellipse_4" data-name="Ellipse 4" cx="0.317" cy="0.317" rx="0.317" ry="0.317" transform="translate(37.618 9.187)" fill="#fff" stroke="#707070" stroke-width="1"/>
      <ellipse id="Ellipse_5" data-name="Ellipse 5" cx="0.317" cy="0.317" rx="0.317" ry="0.317" transform="translate(14.228 38.741)" fill="#fff" stroke="#707070" stroke-width="1"/>
      <ellipse id="Ellipse_6" data-name="Ellipse 6" cx="0.317" cy="0.317" rx="0.317" ry="0.317" transform="translate(15.052 41.274)" fill="#fff" stroke="#707070" stroke-width="1"/>
      <ellipse id="Ellipse_7" data-name="Ellipse 7" cx="0.237" cy="0.237" rx="0.237" ry="0.237" transform="translate(11.205 39.2)" fill="#fff" stroke="#707070" stroke-width="1"/>
      <ellipse id="Ellipse_8" data-name="Ellipse 8" cx="0.238" cy="0.238" rx="0.238" ry="0.238" transform="translate(24.081 44.175)" fill="#fff" stroke="#707070" stroke-width="1"/>
      <ellipse id="Ellipse_9" data-name="Ellipse 9" cx="0.237" cy="0.237" rx="0.237" ry="0.237" transform="translate(44.278 39.981)" fill="#fff" stroke="#707070" stroke-width="1"/>
      <ellipse id="Ellipse_10" data-name="Ellipse 10" cx="0.238" cy="0.238" rx="0.238" ry="0.238" transform="translate(50.146 33.605)" fill="#fff" stroke="#707070" stroke-width="1"/>
      <ellipse id="Ellipse_11" data-name="Ellipse 11" cx="0.237" cy="0.237" rx="0.237" ry="0.237" transform="translate(21.38 11.119)" fill="#fff" stroke="#707070" stroke-width="1"/>
      <ellipse id="Ellipse_12" data-name="Ellipse 12" cx="0.237" cy="0.237" rx="0.237" ry="0.237" transform="translate(27.839 6.375)" fill="#fff" stroke="#707070" stroke-width="1"/>
      <ellipse id="Ellipse_13" data-name="Ellipse 13" cx="0.237" cy="0.237" rx="0.237" ry="0.237" transform="translate(27.137 5.911)" fill="#fff" stroke="#707070" stroke-width="1"/>
      <ellipse id="Ellipse_14" data-name="Ellipse 14" cx="0.237" cy="0.237" rx="0.237" ry="0.237" transform="translate(26.504 5.446)" fill="#fff" stroke="#707070" stroke-width="1"/>
      <ellipse id="Ellipse_15" data-name="Ellipse 15" cx="0.237" cy="0.237" rx="0.237" ry="0.237" transform="translate(22.393 12.344)" fill="#fff" stroke="#707070" stroke-width="1"/>
      <ellipse id="Ellipse_16" data-name="Ellipse 16" cx="0.237" cy="0.237" rx="0.237" ry="0.237" transform="translate(31.907 0)" fill="#fff" stroke="#707070" stroke-width="1"/>
      <ellipse id="Ellipse_17" data-name="Ellipse 17" cx="0.237" cy="0.237" rx="0.237" ry="0.237" transform="translate(33.47 6.839)" fill="#fff" stroke="#707070" stroke-width="1"/>
      <ellipse id="Ellipse_18" data-name="Ellipse 18" cx="0.237" cy="0.237" rx="0.237" ry="0.237" transform="translate(31.005 5.504)" fill="#fff" stroke="#707070" stroke-width="1"/>
      <ellipse id="Ellipse_19" data-name="Ellipse 19" cx="0.237" cy="0.237" rx="0.237" ry="0.237" transform="translate(26.784 7.32)" fill="#fff" stroke="#707070" stroke-width="1"/>
      <ellipse id="Ellipse_20" data-name="Ellipse 20" cx="0.237" cy="0.237" rx="0.237" ry="0.237" transform="translate(45.402 46.246)" fill="#fff" stroke="#707070" stroke-width="1"/>
      <ellipse id="Ellipse_21" data-name="Ellipse 21" cx="0.238" cy="0.238" rx="0.238" ry="0.238" transform="translate(13.906 40.424)" fill="#fff" stroke="#707070" stroke-width="1"/>
      <ellipse id="Ellipse_22" data-name="Ellipse 22" cx="0.238" cy="0.238" rx="0.238" ry="0.238" transform="translate(30.414 43.485)" fill="#fff" stroke="#707070" stroke-width="1"/>
      <ellipse id="Ellipse_23" data-name="Ellipse 23" cx="0.238" cy="0.238" rx="0.238" ry="0.238" transform="translate(18.819 40.234)" fill="#fff" stroke="#707070" stroke-width="1"/>
      <ellipse id="Ellipse_24" data-name="Ellipse 24" cx="0.238" cy="0.238" rx="0.238" ry="0.238" transform="translate(20.872 43.585)" fill="#fff" stroke="#707070" stroke-width="1"/>
      <ellipse id="Ellipse_25" data-name="Ellipse 25" cx="0.237" cy="0.237" rx="0.237" ry="0.237" transform="translate(35.987 41.475)" fill="#fff" stroke="#707070" stroke-width="1"/>
      <ellipse id="Ellipse_26" data-name="Ellipse 26" cx="0.237" cy="0.237" rx="0.237" ry="0.237" transform="translate(44.32 36.772)" fill="#fff" stroke="#707070" stroke-width="1"/>
      <ellipse id="Ellipse_27" data-name="Ellipse 27" cx="0.237" cy="0.237" rx="0.237" ry="0.237" transform="translate(50.637 39.659)" fill="#fff" stroke="#707070" stroke-width="1"/>
      <ellipse id="Ellipse_28" data-name="Ellipse 28" cx="0.237" cy="0.237" rx="0.237" ry="0.237" transform="translate(52.79 41.037)" fill="#fff" stroke="#707070" stroke-width="1"/>
      <ellipse id="Ellipse_29" data-name="Ellipse 29" cx="0.237" cy="0.237" rx="0.237" ry="0.237" transform="translate(53.144 37.279)" fill="#fff" stroke="#707070" stroke-width="1"/>
      <ellipse id="Ellipse_30" data-name="Ellipse 30" cx="0.237" cy="0.237" rx="0.237" ry="0.237" transform="translate(21.733 31.96)" fill="#fff" stroke="#707070" stroke-width="1"/>
      <ellipse id="Ellipse_31" data-name="Ellipse 31" cx="0.317" cy="0.317" rx="0.317" ry="0.317" transform="translate(21.743 37.326)" fill="#fff" stroke="#707070" stroke-width="1"/>
      <ellipse id="Ellipse_32" data-name="Ellipse 32" cx="0.317" cy="0.317" rx="0.317" ry="0.317" transform="translate(23.643 41.337)" fill="#fff" stroke="#707070" stroke-width="1"/>
      <ellipse id="Ellipse_33" data-name="Ellipse 33" cx="0.317" cy="0.317" rx="0.317" ry="0.317" transform="translate(46.399 37.157)" fill="#fff" stroke="#707070" stroke-width="1"/>
      <ellipse id="Ellipse_34" data-name="Ellipse 34" cx="0.317" cy="0.317" rx="0.317" ry="0.317" transform="translate(54.589 36.693)" fill="#fff" stroke="#707070" stroke-width="1"/>
      <ellipse id="Ellipse_35" data-name="Ellipse 35" cx="0.317" cy="0.317" rx="0.317" ry="0.317" transform="translate(50.536 34.962)" fill="#fff" stroke="#707070" stroke-width="1"/>
      <ellipse id="Ellipse_36" data-name="Ellipse 36" cx="0.317" cy="0.317" rx="0.317" ry="0.317" transform="translate(46.399 35.131)" fill="#fff" stroke="#707070" stroke-width="1"/>
      <path id="Path_55" data-name="Path 55" d="M58.081,11.785l.787-.075-.786-.044a.349.349,0,0,0-.3-.291l-.075-.784-.045.79a.348.348,0,0,0-.269.3l-.8.073.811.044a.349.349,0,0,0,.277.267l.073.808.043-.806A.353.353,0,0,0,58.081,11.785Z" transform="translate(-19.9 -8.643)" fill="#fff" stroke="#707070" stroke-width="1"/>
      <path id="Path_56" data-name="Path 56" d="M39.2,24.243l.787-.075-.786-.044a.349.349,0,0,0-.3-.291l-.075-.784-.044.79a.348.348,0,0,0-.269.3l-.8.073.811.044a.349.349,0,0,0,.277.267l.073.808.044-.806A.35.35,0,0,0,39.2,24.243Z" transform="translate(-14.303 -12.335)" fill="#fff" stroke="#707070" stroke-width="1"/>
      <path id="Path_57" data-name="Path 57" d="M81.031,57.181l.787-.075-.786-.044a.349.349,0,0,0-.3-.291l-.075-.784-.044.79a.348.348,0,0,0-.269.3l-.8.073.811.044a.349.349,0,0,0,.277.267l.073.808.044-.806A.351.351,0,0,0,81.031,57.181Z" transform="translate(-26.702 -22.097)" fill="#fff" stroke="#707070" stroke-width="1"/>
      <path id="Path_58" data-name="Path 58" d="M35.415,74.4l.787-.075-.786-.044a.349.349,0,0,0-.3-.291l-.075-.783L35,74a.348.348,0,0,0-.27.3l-.8.073.811.044a.348.348,0,0,0,.277.267l.073.808.044-.806A.351.351,0,0,0,35.415,74.4Z" transform="translate(-13.183 -27.201)" fill="#fff" stroke="#707070" stroke-width="1"/>
      <path id="Path_59" data-name="Path 59" d="M77.476,66l.787-.075-.786-.044a.349.349,0,0,0-.3-.291l-.075-.784-.044.789a.348.348,0,0,0-.269.3l-.8.073.811.044a.349.349,0,0,0,.277.267l.073.808.044-.806A.35.35,0,0,0,77.476,66Z" transform="translate(-25.648 -24.711)" fill="#fff" stroke="#707070" stroke-width="1"/>
      <path id="Path_60" data-name="Path 60" d="M43.233,27.334c-3.284,1.276-6.487,2.416-9.19,3.261-5.492,1.72-20.518,6.375-29.6,12.243l.76.3a55.552,55.552,0,0,1,12.581-5.193c3.757-1.182,15.9-4.025,21.4-5.573,1.858-.523,4.035-1.207,6.34-2.041q-.8-1.122-1.7-2.247Q43.538,27.7,43.233,27.334Zm4.012,5.53c-.8.537-1.461.965-1.928,1.236-2.7,1.562-15.875,10.555-18.872,12.623s-11.315,9.921-13.763,12.2l-.084.928a163.7,163.7,0,0,1,13.51-11.229c3.884-2.955,11.919-8.423,14.65-10.175q3.916-2.512,7.078-4.624l-.1-.174Q47.493,33.259,47.245,32.864ZM59.586,19.83A124.806,124.806,0,0,1,43.8,27.114q.211.259.42.521.986,1.241,1.86,2.494A64.229,64.229,0,0,0,59.8,23.376a146.789,146.789,0,0,1-12.122,9.2q.3.487.578.972c5.856-3.919,9.8-6.8,12.092-8.732,3.166-2.66,10.386-8.613,13.13-16.592A47.645,47.645,0,0,1,59.586,19.83Z" transform="translate(-4.448 -7.94)" fill="#fc3d21" stroke="#707070" stroke-width="1"/>
      <path id="Path_61" data-name="Path 61" d="M40.4,44.128c-.623-.784-1.484-1.834-2.131-2.648-.865-1.089-1.665-2.188-2.4-3.287l-.716.179A49.967,49.967,0,0,0,38.1,42.482c.782.985,1.494,1.778,1.858,2.271.074.1.22.321.418.615l.69-.469C40.837,44.655,40.616,44.4,40.4,44.128Zm4.546,4.126c-.512-.484-1.752-1.293-3.043-2.506l-.861.594A10.431,10.431,0,0,0,43.9,49.382C45.241,50.016,45.6,48.875,44.947,48.254ZM51.718,30.67c-7.383-9.292-16.4-14.4-20.29-11.308-3.02,2.4-1.78,9.412,2.383,16.778l.64-.218c-4.2-7.177-5.351-13.847-2.5-16.111,3.579-2.844,12.222,2.281,19.391,11.3a53.482,53.482,0,0,1,3.893,5.569c4.23,7,5.529,13.333,2.606,15.917-.894.791-3.627,1.1-7.207-.51-.05.063.03.232.093.274,3.09,1.243,6.051,1.716,7.545.529C61.859,50.041,59.1,39.963,51.718,30.67Z" transform="translate(-11.949 -10.975)" fill="#fff" stroke="#707070" stroke-width="1"/>
      <path id="Path_62" data-name="Path 62" d="M15.969,37.38H20.7l3.969,6.734V38.858a2.271,2.271,0,0,0-1.013-1.478h3.272a2.091,2.091,0,0,0-.844,1.478v7.726c0,.475.686,1.129,1.013,1.383h-4.56L18.5,41.2v5.32c0,.528.517,1.034,1.055,1.467H16.075a1.909,1.909,0,0,0,1.013-1.4c.042-.528,0-7.335,0-7.631C17.088,38.309,16.465,37.781,15.969,37.38Z" transform="translate(-7.862 -16.582)" fill="#fff" stroke="#707070" stroke-width="1"/>
      <path id="Path_63" data-name="Path 63" d="M74.838,47.966h6.291a1.658,1.658,0,0,1-.95-1.045c-.211-.549-3.546-9.541-3.546-9.541H74.241q-1.017.732-2.181,1.546c0,.02,0,.039-.008.058-.1.633-1.976,7.412-2.09,7.747-.158.464-.971.982-1.3,1.256h3.388a1.528,1.528,0,0,1-.549-1.172c.063-.422.253-1.267.253-1.267h3.5A6.43,6.43,0,0,1,75.6,46.71C75.672,47.143,75.229,47.629,74.838,47.966ZM72.073,44.2l1.182-3.863L74.817,44.2Zm-.533-6.433.522-.386h-.918C71.236,37.464,71.387,37.6,71.541,37.766Z" transform="translate(-23.479 -16.582)" fill="#fff" stroke="#707070" stroke-width="1"/>
      <path id="Path_64" data-name="Path 64" d="M37.363,46.816c.063-.422.253-1.267.253-1.267h3.5a6.43,6.43,0,0,1,.338,1.161c.074.433-.369.918-.76,1.256h5.538l.345-.232a2.109,2.109,0,0,1-.543-.813c-.211-.549-3.546-9.541-3.546-9.541H37c.264.243,1.024.9.908,1.6-.1.633-1.976,7.412-2.09,7.747-.158.464-.971.982-1.3,1.256h3.388A1.528,1.528,0,0,1,37.363,46.816Zm1.752-6.481L40.677,44.2H37.933Z" transform="translate(-13.361 -16.582)" fill="#fff" stroke="#707070" stroke-width="1"/>
      <path id="Path_65" data-name="Path 65" d="M62.335,42.572q-1.549,1.032-3.271,2.157c.515.25.925.564.965.969.073.761-1.457,1.129-2.839.971a3.417,3.417,0,0,1-.807-.2l-.871.56c-.3.192-.662.429-1.077.7v1.093a1.931,1.931,0,0,1,1.34-1.045,7.46,7.46,0,0,0,3.768.475c1.393-.077,4.085-1.562,4.042-3.272A3.287,3.287,0,0,0,62.335,42.572Zm-7.9,2.64v1.113l.75-.5A5.549,5.549,0,0,1,54.434,45.212Zm6.92-3.339c-.267-.158-.538-.3-.8-.419-1.351-.633-2.765-.749-3.061-1.6-.208-.6.38-1.161,1.815-1.14a5.638,5.638,0,0,1,3.124,1.182V37.169c-.106.106-.569.637-.992.549a18.546,18.546,0,0,0-3.779-.38,3.4,3.4,0,0,0-3.43,3.188c-.074,2.48,1.91,3.156,3.029,3.546.115.04.247.083.39.129,1.073-.7,1.922-1.236,2.418-1.522C60.4,42.486,60.841,42.211,61.353,41.874Z" transform="translate(-19.202 -16.52)" fill="#fff" stroke="#707070" stroke-width="1"/>
    </g>
  </g>
</svg>
