<svg xmlns="http://www.w3.org/2000/svg" width="30" height="28.015" viewBox="0 0 30 28.015">
  <path id="share-square-solid" d="M29.609,9.377l-7.56,7.56c-.79.783-1.89.525-1.89-.63V11.9c-7.525.053-10.943,2.011-8.82,9.45.233.817-.627,1.764-1.26,1.26a11.417,11.417,0,0,1-3.78-8.19c0-7.859,6.24-9.405,13.859-9.45V1.187c0-1.156,1.1-2.042,1.89-1.26l7.56,7.56A1.337,1.337,0,0,1,29.609,9.377Zm-9.45,11.34V24.5H3.15V6.857H5.67c.17,0,.512.129.63,0a11.7,11.7,0,0,1,2.52-2.52c.579-.317.653-1.26,0-1.26H2.52C1.14,3.077,0,4.78,0,6.227v18.9a2.492,2.492,0,0,0,2.52,2.52H20.789a2.492,2.492,0,0,0,2.52-2.52v-5.04c0-.453-.223-.781-.63-.63-.57.212-1.291.72-1.89.63C20.411,20.029,20.159,20.315,20.159,20.716Z" transform="translate(0 0.369)" />
</svg>
